<svg width="22" height="22" viewBox="0 0 22 22" fill="none" xmlns="http://www.w3.org/2000/svg">
<path d="M12.8333 10.0833H11.9167V6.41668H13.75C13.9931 6.41668 14.2263 6.51325 14.3982 6.68516C14.5701 6.85707 14.6667 7.09023 14.6667 7.33334C14.6667 7.57646 14.7632 7.80962 14.9352 7.98152C15.1071 8.15343 15.3402 8.25001 15.5833 8.25001C15.8264 8.25001 16.0596 8.15343 16.2315 7.98152C16.4034 7.80962 16.5 7.57646 16.5 7.33334C16.5 6.604 16.2103 5.90452 15.6945 5.3888C15.1788 4.87307 14.4793 4.58334 13.75 4.58334H11.9167V2.75001C11.9167 2.5069 11.8201 2.27374 11.6482 2.10183C11.4763 1.92992 11.2431 1.83334 11 1.83334C10.7569 1.83334 10.5237 1.92992 10.3518 2.10183C10.1799 2.27374 10.0833 2.5069 10.0833 2.75001V4.58334H9.16667C8.19421 4.58334 7.26157 4.96965 6.57394 5.65728C5.88631 6.34492 5.5 7.27755 5.5 8.25001C5.5 9.22247 5.88631 10.1551 6.57394 10.8427C7.26157 11.5304 8.19421 11.9167 9.16667 11.9167H10.0833V15.5833H8.25C8.00688 15.5833 7.77373 15.4868 7.60182 15.3149C7.42991 15.143 7.33333 14.9098 7.33333 14.6667C7.33333 14.4236 7.23676 14.1904 7.06485 14.0185C6.89294 13.8466 6.65978 13.75 6.41667 13.75C6.17355 13.75 5.94039 13.8466 5.76849 14.0185C5.59658 14.1904 5.5 14.4236 5.5 14.6667C5.5 15.396 5.78973 16.0955 6.30546 16.6112C6.82118 17.1269 7.52065 17.4167 8.25 17.4167H10.0833V19.25C10.0833 19.4931 10.1799 19.7263 10.3518 19.8982C10.5237 20.0701 10.7569 20.1667 11 20.1667C11.2431 20.1667 11.4763 20.0701 11.6482 19.8982C11.8201 19.7263 11.9167 19.4931 11.9167 19.25V17.4167H12.8333C13.8058 17.4167 14.7384 17.0304 15.4261 16.3427C16.1137 15.6551 16.5 14.7225 16.5 13.75C16.5 12.7775 16.1137 11.8449 15.4261 11.1573C14.7384 10.4697 13.8058 10.0833 12.8333 10.0833ZM10.0833 10.0833H9.16667C8.68044 10.0833 8.21412 9.89019 7.8703 9.54637C7.52649 9.20256 7.33333 8.73624 7.33333 8.25001C7.33333 7.76378 7.52649 7.29746 7.8703 6.95365C8.21412 6.60983 8.68044 6.41668 9.16667 6.41668H10.0833V10.0833ZM12.8333 15.5833H11.9167V11.9167H12.8333C13.3196 11.9167 13.7859 12.1098 14.1297 12.4536C14.4735 12.7975 14.6667 13.2638 14.6667 13.75C14.6667 14.2362 14.4735 14.7026 14.1297 15.0464C13.7859 15.3902 13.3196 15.5833 12.8333 15.5833Z" fill="black"/>
</svg>
