<svg width="24" height="24" viewBox="0 0 24 24" fill="none" xmlns="http://www.w3.org/2000/svg">
<path d="M11.3173 21.7978L11.3175 21.798C11.5077 21.9607 11.7497 22.0501 12 22.0501C12.2497 22.0501 12.4912 21.9611 12.6812 21.7991C12.8682 21.6591 14.7038 20.0684 16.4952 17.8388C18.2898 15.6053 20.05 12.7185 20.05 10C20.05 7.86501 19.2019 5.81746 17.6922 4.30779C16.1825 2.79812 14.135 1.95 12 1.95C9.86501 1.95 7.81746 2.79812 6.30779 4.30779C4.79812 5.81746 3.95 7.86501 3.95 10C3.95 12.7186 5.72281 15.6054 7.52358 17.8389C9.32 20.067 11.1535 21.6559 11.3156 21.7964L11.3173 21.7978ZM12.0001 19.5814C10.939 18.5815 9.46021 17.0215 8.24208 15.2986C7.00937 13.5551 6.05 11.6535 6.05 10C6.05 8.42196 6.67687 6.90856 7.79271 5.79271C8.90856 4.67687 10.422 4.05 12 4.05C13.578 4.05 15.0914 4.67687 16.2073 5.79271C17.3231 6.90856 17.95 8.42196 17.95 10C17.95 11.6536 16.9906 13.5576 15.7579 15.3024C14.5398 17.0265 13.0611 18.5864 12.0001 19.5814ZM12 5.95C11.199 5.95 10.416 6.18753 9.74994 6.63255C9.08392 7.07757 8.56482 7.71009 8.25829 8.45013C7.95175 9.19017 7.87155 10.0045 8.02782 10.7901C8.18409 11.5757 8.56981 12.2974 9.13622 12.8638C9.70262 13.4302 10.4243 13.8159 11.2099 13.9722C11.9955 14.1285 12.8098 14.0482 13.5499 13.7417C14.2899 13.4352 14.9224 12.9161 15.3675 12.2501C15.8125 11.584 16.05 10.801 16.05 10C16.05 8.92587 15.6233 7.89574 14.8638 7.13622C14.1043 6.3767 13.0741 5.95 12 5.95ZM12 11.95C11.6143 11.95 11.2373 11.8356 10.9166 11.6214C10.596 11.4071 10.346 11.1025 10.1984 10.7462C10.0508 10.3899 10.0122 9.99784 10.0875 9.61957C10.1627 9.24131 10.3484 8.89385 10.6211 8.62114C10.8939 8.34843 11.2413 8.16271 11.6196 8.08747C11.9978 8.01223 12.3899 8.05084 12.7462 8.19843C13.1025 8.34603 13.4071 8.59596 13.6214 8.91664C13.8356 9.23731 13.95 9.61433 13.95 10C13.95 10.5172 13.7446 11.0132 13.3789 11.3789C13.0132 11.7446 12.5172 11.95 12 11.95Z" fill="black" stroke="black" stroke-width="0.1"/>
</svg>
