<svg width="22" height="22" viewBox="0 0 22 22" fill="none" xmlns="http://www.w3.org/2000/svg">
<path d="M19.7083 16.5L13.6191 11M8.38096 11L2.29171 16.5M1.83334 6.41666L9.31785 11.6558C9.92393 12.0801 10.227 12.2922 10.5566 12.3744C10.8477 12.4469 11.1523 12.4469 11.4434 12.3744C11.7731 12.2922 12.0761 12.0801 12.6822 11.6558L20.1667 6.41666M6.23334 18.3333H15.7667C17.3068 18.3333 18.0769 18.3333 18.6651 18.0336C19.1826 17.7699 19.6033 17.3493 19.8669 16.8318C20.1667 16.2435 20.1667 15.4735 20.1667 13.9333V8.06666C20.1667 6.52652 20.1667 5.75645 19.8669 5.16819C19.6033 4.65074 19.1826 4.23005 18.6651 3.9664C18.0769 3.66666 17.3068 3.66666 15.7667 3.66666H6.23334C4.6932 3.66666 3.92313 3.66666 3.33487 3.9664C2.81742 4.23005 2.39673 4.65074 2.13308 5.16819C1.83334 5.75645 1.83334 6.52652 1.83334 8.06666V13.9333C1.83334 15.4735 1.83334 16.2435 2.13308 16.8318C2.39673 17.3493 2.81742 17.7699 3.33487 18.0336C3.92313 18.3333 4.6932 18.3333 6.23334 18.3333Z" stroke="white" stroke-width="2" stroke-linecap="round" stroke-linejoin="round"/>
</svg>
