<svg width="24" height="24" viewBox="0 0 24 24" fill="none" xmlns="http://www.w3.org/2000/svg">
<path d="M15.9989 7.9997L7.99888 10.9997" stroke="white" stroke-width="1.75" stroke-linecap="round"/>
<path d="M15.9989 16.0003L7.99888 13.0003" stroke="white" stroke-width="1.75" stroke-linecap="round"/>
<path fill-rule="evenodd" clip-rule="evenodd" d="M6.00112 14.0003C7.10569 14.0003 8.00112 13.1049 8.00112 12.0003C8.00112 10.8957 7.10569 10.0003 6.00112 10.0003C4.89655 10.0003 4.00112 10.8957 4.00112 12.0003C4.00112 13.1049 4.89655 14.0003 6.00112 14.0003Z" stroke="white" stroke-width="1.75"/>
<path fill-rule="evenodd" clip-rule="evenodd" d="M18.0011 8.99969C19.1057 8.99969 20.0011 8.10426 20.0011 6.99969C20.0011 5.89513 19.1057 4.99969 18.0011 4.99969C16.8965 4.99969 16.0011 5.89513 16.0011 6.99969C16.0011 8.10426 16.8965 8.99969 18.0011 8.99969Z" stroke="white" stroke-width="1.75"/>
<path fill-rule="evenodd" clip-rule="evenodd" d="M18.0011 19C19.1057 19 20.0011 18.1046 20.0011 17C20.0011 15.8954 19.1057 15 18.0011 15C16.8965 15 16.0011 15.8954 16.0011 17C16.0011 18.1046 16.8965 19 18.0011 19Z" stroke="white" stroke-width="1.75"/>
</svg>
